<svg xmlns="http://www.w3.org/2000/svg" width="48" height="48" fill="none" viewBox="0 0 48 48">
  <path fill="#F00073" d="M40.5 0h-33A7.5 7.5 0 000 7.5v33A7.5 7.5 0 007.5 48h33a7.5 7.5 0 007.5-7.5v-33A7.5 7.5 0 0040.5 0z"/>
  <path fill="#fff" d="M24 13.8h5.1c1.2 0 1.8.3 2.25.45.6.3 1.05.45 1.5.9.45.45.75.9.9 1.5.15.45.3 1.05.45 2.25v10.2c0 1.2-.3 1.8-.45 2.25-.3.6-.45 1.05-.9 1.5-.45.45-.9.75-1.5.9-.45.15-1.05.3-2.25.45H18.9c-1.2 0-1.8-.3-2.25-.45-.6-.3-1.05-.45-1.5-.9-.45-.45-.75-.9-.9-1.5-.15-.45-.3-1.05-.45-2.25V24v-5.1c0-1.2.3-1.8.45-2.25.3-.6.45-1.05.9-1.5.45-.45.9-.75 1.5-.9.45-.15 1.05-.3 2.25-.45H24zm0-2.25h-5.1c-1.35 0-2.25.3-3 .6s-1.5.75-2.25 1.5-1.05 1.35-1.5 2.25c-.3.75-.45 1.65-.6 3v10.2c0 1.35.3 2.25.6 3s.75 1.5 1.5 2.25 1.35 1.05 2.25 1.5c.75.3 1.65.45 3 .6h10.2c1.35 0 2.25-.3 3-.6s1.5-.75 2.25-1.5 1.05-1.35 1.5-2.25c.3-.75.45-1.65.6-3V24v-5.1c0-1.35-.3-2.25-.6-3s-.75-1.5-1.5-2.25-1.35-1.05-2.25-1.5c-.75-.3-1.65-.45-3-.6H24z"/>
  <path fill="#fff" d="M24 17.55c-3.6 0-6.45 2.85-6.45 6.45s2.85 6.45 6.45 6.45 6.45-2.85 6.45-6.45-2.85-6.45-6.45-6.45zm0 10.65c-2.25 0-4.2-1.8-4.2-4.2 0-2.25 1.8-4.2 4.2-4.2 2.25 0 4.2 1.8 4.2 4.2 0 2.25-1.95 4.2-4.2 4.2zM30.6 18.9a1.5 1.5 0 100-3 1.5 1.5 0 000 3z"/>
</svg>
