<svg width="48" height="48" viewBox="0 0 48 48" fill="none" xmlns="http://www.w3.org/2000/svg">
<path d="M0 7.5C0 3.35786 3.35786 0 7.5 0H40.5C44.6421 0 48 3.35786 48 7.5V40.5C48 44.6421 44.6421 48 40.5 48H7.5C3.35786 48 0 44.6421 0 40.5V7.5Z" fill="#2787F5"/>
<path d="M12 23.5C12 18.0788 12 15.3683 13.6841 13.6841C15.3683 12 18.0788 12 23.5 12H24.5C29.9212 12 32.6318 12 34.3158 13.6841C36 15.3683 36 18.0788 36 23.5V24.5C36 29.9212 36 32.6318 34.3158 34.3158C32.6318 36 29.9212 36 24.5 36H23.5C18.0788 36 15.3683 36 13.6841 34.3158C12 32.6318 12 29.9212 12 24.5L12 23.5Z" fill="#2787F5"/>
<path fill-rule="evenodd" clip-rule="evenodd" d="M18.499 19.5H16.7486C16.2485 19.5 16.1484 19.7354 16.1484 19.9949C16.1484 20.4585 16.7419 22.7574 18.9115 25.7979C20.358 27.8744 22.3959 29 24.2503 29C25.363 29 25.5006 28.75 25.5006 28.3194V26.75C25.5006 26.25 25.606 26.1502 25.9583 26.1502C26.218 26.1502 26.663 26.28 27.7015 27.2811C28.8884 28.4677 29.084 29 29.7516 29H31.502C32.0021 29 32.2522 28.75 32.1079 28.2567C31.9501 27.765 31.3834 27.0515 30.6315 26.2058C30.2235 25.7238 29.6116 25.2047 29.4261 24.9451C29.1665 24.6114 29.2407 24.463 29.4261 24.1664C29.4261 24.1664 31.5587 21.163 31.7813 20.1433C31.8925 19.7725 31.7813 19.5 31.2519 19.5H29.5015C29.0565 19.5 28.8513 19.7354 28.74 19.9949C28.74 19.9949 27.8499 22.1641 26.5889 23.5731C26.1809 23.981 25.9954 24.1108 25.7729 24.1108C25.6616 24.1108 25.5006 23.981 25.5006 23.6103V20.1433C25.5006 19.6983 25.3714 19.5 25.0005 19.5H22.2498C21.9717 19.5 21.8044 19.7065 21.8044 19.9022C21.8044 20.324 22.4349 20.4213 22.4999 21.6079V24.185C22.4999 24.75 22.3978 24.8525 22.1753 24.8525C21.5819 24.8525 20.1385 22.6736 19.2824 20.1804C19.1146 19.6958 18.9463 19.5 18.499 19.5Z" fill="white"/>
</svg>
