<svg width="48" height="48" viewBox="0 0 48 48" fill="none" xmlns="http://www.w3.org/2000/svg">
<path d="M40.5 0H7.5C3.35786 0 0 3.35786 0 7.5V40.5C0 44.6421 3.35786 48 7.5 48H40.5C44.6421 48 48 44.6421 48 40.5V7.5C48 3.35786 44.6421 0 40.5 0Z" fill="#FF0000"/>
<path d="M35.4 18.1501C35.1 17.1001 34.35 16.3501 33.3 16.0501C31.5 15.6001 23.85 15.6001 23.85 15.6001C23.85 15.6001 16.35 15.6001 14.4 16.0501C13.35 16.3501 12.6 17.1001 12.3 18.1501C12 20.1001 12 24.0001 12 24.0001C12 24.0001 12 27.9001 12.45 29.8501C12.75 30.9001 13.5 31.6501 14.55 31.9501C16.35 32.4001 24 32.4001 24 32.4001C24 32.4001 31.5 32.4001 33.45 31.9501C34.5 31.6501 35.25 30.9001 35.55 29.8501C36 27.9001 36 24.0001 36 24.0001C36 24.0001 36 20.1001 35.4 18.1501ZM21.6 27.6001V20.4001L27.9 24.0001L21.6 27.6001Z" fill="white"/>
</svg>
