<svg width="147" height="40" viewBox="0 0 147 40" fill="none" xmlns="http://www.w3.org/2000/svg">
<path fill-rule="evenodd" clip-rule="evenodd" d="M11.4912 5.46894L17.9145 4.71986L21.7062 0H44.9244L50.1453 6.58784L64.144 8.35721L64.1437 17.4025L58.7703 26.4487V17.404L58.7705 17.4035L44.7715 15.6338L39.5512 9.0463L16.1652 9.04683L12.9278 14.6711L6.12643 15.4492L6.11719 15.4489L11.4912 5.46894Z" fill="#F07C00"/>
<path fill-rule="evenodd" clip-rule="evenodd" d="M10.9602 18.0919H34.1788L39.3991 24.6794L53.3981 26.4493V35.4949H48.1332C47.9411 38.0153 45.8351 40 43.2657 40C40.696 40 38.5908 38.0153 38.3984 35.4949H15.8674C15.6752 38.0153 13.5693 40 11 40C8.43036 40 6.32454 38.0153 6.13224 35.4949H0V25.5152L7.16844 24.6794L10.9602 18.0919ZM70.2019 27.6957V35.4609H72.3759V29.4485H75.2583V35.4609H77.4322V27.6957H70.2019ZM80.8401 27.6957L78.2931 35.4609H80.5988L81.0929 33.7637H83.8376L84.3318 35.4609H86.6371L84.0897 27.6957H80.8401ZM82.344 29.2489H82.5859L83.3765 32.1441H81.5541L82.344 29.2489ZM87.7017 27.6957V35.4609H89.8757V33.0647H90.6329C91.4896 33.0647 92.4336 33.0095 93.1582 32.5212C94.0141 31.9442 94.1794 31.1124 94.1794 30.3805C94.1794 29.6485 94.0141 28.8163 93.1582 28.2396C92.4336 27.7512 91.4896 27.6957 90.6329 27.6957H87.7017ZM89.8757 29.2489H90.6989C90.9513 29.2489 91.3798 29.2711 91.6544 29.4929C91.9613 29.7372 91.9943 30.1364 91.9943 30.358C91.9943 30.5802 91.9613 30.9793 91.6544 31.2234C91.3798 31.4452 90.9513 31.4674 90.6989 31.4674H89.8757V29.2489ZM95.3535 27.6957V35.4609H97.5275V32.1997H98.5265L100.097 35.4609H102.6L100.294 31.3456L102.578 27.6957H100.217L98.5265 30.6022H97.5275V27.6957H95.3535ZM106.589 27.6957V29.3041H108.674V35.4609H110.848V29.3041H112.956V27.6957H106.589ZM115.273 27.6957L112.726 35.4609H115.032L115.525 33.7637H118.271L118.764 35.4609H121.069L118.522 27.6957H115.273ZM116.777 29.2489H117.019L117.809 32.1441H115.986L116.777 29.2489ZM121.965 27.6957V35.4609H124.139V32.1997H125.138L126.709 35.4609H129.212L126.906 31.3456L129.189 27.6957H126.829L125.138 30.6022H124.139V27.6957H121.965ZM135.261 32.3547C135.261 32.7766 135.118 33.1869 134.898 33.4641C134.69 33.7195 134.35 33.9633 133.778 33.9522C133.186 33.941 132.801 33.6747 132.538 33.2309C132.252 32.743 132.208 32.0996 132.208 31.5452C132.208 30.9793 132.252 30.358 132.538 29.8701C132.801 29.4265 133.186 29.1493 133.778 29.1493C134.338 29.1493 134.69 29.4042 134.876 29.6371C135.096 29.9147 135.238 30.336 135.25 30.7464H137.489C137.434 29.5044 136.808 28.739 136.424 28.3948C136.007 28.0176 135.173 27.4742 133.756 27.4742C132.68 27.4742 131.725 27.7844 130.968 28.605C130.111 29.5371 129.947 30.691 129.947 31.5785C129.947 32.4657 130.111 33.6194 130.968 34.5511C131.725 35.3832 132.68 35.6824 133.756 35.6824C134.514 35.6824 135.557 35.5384 136.413 34.7728C136.93 34.307 137.478 33.5308 137.522 32.3547H135.261ZM138.975 27.6957V35.4609H141.148V34.2974L143.828 31.1317V35.4609H146.001V27.6957H143.828V28.512L141.148 31.6777V27.6957H138.975ZM77.4319 6.64363V19.9307H84.2131V6.64363H90.7885V0H84.1449H77.5016H70.2019V6.64363H77.4319ZM102.104 13.2877V19.9307H95.3242V0H102.104V6.64363H106.216L107.276 4.98308L110.455 0H117.618L114.438 4.98308L111.26 9.96529L114.438 14.9481L117.618 19.9307H110.455L106.216 13.2877H102.104ZM120.454 0V19.9307H127.097V9.4074L133.227 16.6461L139.358 9.4074V19.9307H146.001V0H139.015L133.227 7.70612L127.439 0H120.454Z" fill="#222426"/>
</svg>
